<mxfile host="65bd71144e">
    <diagram id="6p_anLCaum74U9-TH2l0" name="Page-1">
        <mxGraphModel dx="3463" dy="2321" grid="1" gridSize="5" guides="1" tooltips="1" connect="1" arrows="1" fold="1" page="1" pageScale="1" pageWidth="1169" pageHeight="827" background="none" math="0" shadow="0">
            <root>
                <mxCell id="0"/>
                <mxCell id="1" parent="0"/>
                <mxCell id="162" value="" style="rounded=0;whiteSpace=wrap;html=1;fontSize=20;fontColor=#99004D;gradientColor=default;movable=0;resizable=0;rotatable=0;deletable=0;editable=0;connectable=0;strokeWidth=0;" vertex="1" parent="1">
                    <mxGeometry x="440" y="-515" width="1200" height="120" as="geometry"/>
                </mxCell>
                <mxCell id="2" value="" style="rounded=0;whiteSpace=wrap;html=1;movable=0;resizable=0;rotatable=0;deletable=0;editable=0;connectable=0;fillColor=#000000;strokeWidth=0;strokeColor=default;align=right;" parent="1" vertex="1">
                    <mxGeometry x="80" y="-515" width="1920" height="1080" as="geometry"/>
                </mxCell>
                <mxCell id="161" value="" style="rounded=0;whiteSpace=wrap;html=1;fontSize=20;fontColor=#99004D;gradientColor=default;movable=0;resizable=0;rotatable=0;deletable=0;editable=0;connectable=0;strokeWidth=0;" vertex="1" parent="1">
                    <mxGeometry x="440" y="-385" width="1200" height="870" as="geometry"/>
                </mxCell>
                <mxCell id="3" value="" style="rounded=0;whiteSpace=wrap;html=1;strokeWidth=0;movable=0;resizable=0;rotatable=0;deletable=0;editable=0;connectable=0;strokeColor=#FFFFFF;fillColor=#18141D;gradientColor=default;" parent="1" vertex="1">
                    <mxGeometry x="80" y="-515" width="1920" height="125" as="geometry"/>
                </mxCell>
                <mxCell id="10" value="" style="rounded=0;whiteSpace=wrap;html=1;strokeWidth=0;align=left;verticalAlign=middle;labelPosition=center;verticalLabelPosition=middle;movable=0;resizable=0;rotatable=0;deletable=0;editable=0;connectable=0;strokeColor=default;fillColor=#18141D;gradientColor=default;" parent="1" vertex="1">
                    <mxGeometry x="80" y="485" width="1920" height="80" as="geometry"/>
                </mxCell>
                <mxCell id="61" value="&lt;span style=&quot;font-size: 36px;&quot;&gt;Call to action&lt;/span&gt;" style="rounded=0;whiteSpace=wrap;html=1;strokeColor=default;strokeWidth=0;fontSize=20;fillColor=#18141D;gradientColor=default;movable=0;resizable=0;rotatable=0;deletable=0;editable=0;connectable=0;" parent="1" vertex="1">
                    <mxGeometry x="440" y="-390" width="900" height="255" as="geometry"/>
                </mxCell>
                <mxCell id="66" value="&lt;font style=&quot;font-size: 36px;&quot;&gt;Post Excerpt&lt;/font&gt;" style="rounded=0;whiteSpace=wrap;html=1;strokeColor=#FFFFFF;strokeWidth=0;fontSize=30;fillColor=#18141D;gradientColor=default;labelPosition=center;verticalLabelPosition=middle;align=center;verticalAlign=middle;movable=0;resizable=0;rotatable=0;deletable=0;editable=0;connectable=0;" parent="1" vertex="1">
                    <mxGeometry x="440" y="195" width="900" height="290" as="geometry"/>
                </mxCell>
                <mxCell id="39" value="&lt;div style=&quot;line-height: 160%;&quot;&gt;&lt;span style=&quot;background-color: initial;&quot;&gt;&lt;font style=&quot;font-size: 30px;&quot;&gt;&lt;u&gt;Upcoming Course Dates&lt;/u&gt;&lt;/font&gt;&lt;/span&gt;&lt;/div&gt;" style="rounded=0;whiteSpace=wrap;html=1;strokeColor=#FFFFFF;strokeWidth=0;fontSize=25;fillColor=#18141D;verticalAlign=top;movable=0;resizable=0;rotatable=0;deletable=0;editable=0;connectable=0;align=center;horizontal=1;gradientColor=default;" parent="1" vertex="1">
                    <mxGeometry x="1340" y="-390" width="300" height="875" as="geometry"/>
                </mxCell>
                <mxCell id="82" value="&lt;font style=&quot;font-size: 36px;&quot;&gt;Featured Image&lt;/font&gt;" style="rounded=0;whiteSpace=wrap;html=1;strokeColor=#FFFFFF;strokeWidth=0;fillColor=#18141D;movable=0;resizable=0;rotatable=0;deletable=0;editable=0;connectable=0;gradientColor=default;" parent="1" vertex="1">
                    <mxGeometry x="440" y="-135" width="900" height="290" as="geometry"/>
                </mxCell>
                <mxCell id="100" value="Author" style="rounded=0;whiteSpace=wrap;html=1;strokeColor=default;strokeWidth=0;fontSize=20;fillColor=#18141D;align=center;spacingLeft=10;verticalAlign=middle;movable=0;resizable=0;rotatable=0;deletable=0;editable=0;connectable=0;gradientColor=default;" parent="1" vertex="1">
                    <mxGeometry x="1040" y="155" width="300" height="40" as="geometry"/>
                </mxCell>
                <mxCell id="101" value="Number of likes" style="rounded=0;whiteSpace=wrap;html=1;strokeColor=default;strokeWidth=0;fontSize=20;fillColor=#18141D;align=center;spacingLeft=10;verticalAlign=middle;movable=0;resizable=0;rotatable=0;deletable=0;editable=0;connectable=0;gradientColor=default;" parent="1" vertex="1">
                    <mxGeometry x="440" y="155" width="300" height="40" as="geometry"/>
                </mxCell>
                <mxCell id="102" value="Number of comments" style="rounded=0;whiteSpace=wrap;html=1;strokeColor=default;strokeWidth=0;fontSize=20;fillColor=#18141D;align=center;spacingLeft=10;verticalAlign=middle;movable=0;resizable=0;rotatable=0;deletable=0;editable=0;connectable=0;gradientColor=default;" parent="1" vertex="1">
                    <mxGeometry x="740" y="155" width="300" height="40" as="geometry"/>
                </mxCell>
                <mxCell id="106" value="&lt;span style=&quot;font-size: 25px; text-decoration-line: underline;&quot;&gt;Homepage&lt;/span&gt;" style="text;html=1;align=center;verticalAlign=top;resizable=0;points=[];autosize=1;strokeColor=none;fillColor=none;fontSize=25;movable=0;rotatable=0;deletable=0;editable=0;connectable=0;strokeWidth=0;rounded=0;" parent="1" vertex="1">
                    <mxGeometry x="75" y="-585" width="145" height="45" as="geometry"/>
                </mxCell>
                <mxCell id="107" value="&lt;span style=&quot;&quot;&gt;Desktop screen 1920 x 1080 -&amp;nbsp;&lt;/span&gt;&lt;span style=&quot;background-color: initial;&quot;&gt;View limited to 1200 wide&lt;/span&gt;&lt;span style=&quot;&quot;&gt;&lt;br&gt;&lt;/span&gt;" style="text;html=1;align=center;verticalAlign=top;resizable=0;points=[];autosize=1;strokeColor=none;fillColor=none;fontSize=25;horizontal=1;movable=0;rotatable=0;deletable=0;editable=0;connectable=0;strokeWidth=0;rounded=0;" parent="1" vertex="1">
                    <mxGeometry x="245" y="-585" width="645" height="45" as="geometry"/>
                </mxCell>
                <mxCell id="112" value="" style="dashed=0;outlineConnect=0;html=1;align=center;labelPosition=center;verticalLabelPosition=bottom;verticalAlign=top;shape=mxgraph.weblogos.freshbump;fillColor=#C2D952;strokeColor=none;fontSize=30;strokeWidth=0;movable=0;resizable=0;rotatable=0;deletable=0;editable=0;connectable=0;rounded=0;" parent="1" vertex="1">
                    <mxGeometry x="440" y="-500" width="75" height="75" as="geometry"/>
                </mxCell>
                <mxCell id="114" value="The Foraging Link" style="text;html=1;strokeColor=none;fillColor=none;align=center;verticalAlign=middle;whiteSpace=wrap;rounded=0;fontSize=30;strokeWidth=0;movable=0;resizable=0;rotatable=0;deletable=0;editable=0;connectable=0;" parent="1" vertex="1">
                    <mxGeometry x="515" y="-500" width="260" height="75" as="geometry"/>
                </mxCell>
                <mxCell id="130" value="&lt;font style=&quot;font-size: 20px;&quot;&gt;Sign In / Sign&lt;/font&gt;" style="rounded=0;whiteSpace=wrap;html=1;fontSize=25;strokeWidth=0;movable=0;resizable=0;rotatable=0;deletable=0;editable=0;connectable=0;gradientColor=none;fillColor=#18141D;" parent="1" vertex="1">
                    <mxGeometry x="680" y="-420" width="240" height="30" as="geometry"/>
                </mxCell>
                <mxCell id="131" value="&lt;font style=&quot;font-size: 20px;&quot;&gt;People We Like&lt;/font&gt;" style="rounded=0;whiteSpace=wrap;html=1;fontSize=25;strokeWidth=0;movable=0;resizable=0;rotatable=0;deletable=0;editable=0;connectable=0;gradientColor=none;fillColor=#18141D;" parent="1" vertex="1">
                    <mxGeometry x="1160" y="-420" width="240" height="30" as="geometry"/>
                </mxCell>
                <mxCell id="132" value="&lt;font style=&quot;font-size: 20px;&quot;&gt;Home&lt;/font&gt;" style="rounded=0;whiteSpace=wrap;html=1;fontSize=25;strokeWidth=0;movable=0;resizable=0;rotatable=0;deletable=0;editable=0;connectable=0;gradientColor=none;fillColor=#18141D;" parent="1" vertex="1">
                    <mxGeometry x="440" y="-420" width="240" height="30" as="geometry"/>
                </mxCell>
                <mxCell id="133" value="&lt;span style=&quot;font-size: 20px;&quot;&gt;Courses&lt;/span&gt;" style="rounded=0;whiteSpace=wrap;html=1;fontSize=25;strokeWidth=0;movable=0;resizable=0;rotatable=0;deletable=0;editable=0;connectable=0;gradientColor=none;fillColor=#18141D;" parent="1" vertex="1">
                    <mxGeometry x="920" y="-420" width="240" height="30" as="geometry"/>
                </mxCell>
                <mxCell id="136" value="&lt;font style=&quot;font-size: 20px;&quot;&gt;Contact Us&lt;/font&gt;" style="rounded=0;whiteSpace=wrap;html=1;fontSize=25;strokeWidth=0;movable=0;resizable=0;rotatable=0;deletable=0;editable=0;connectable=0;gradientColor=none;fillColor=#18141D;" parent="1" vertex="1">
                    <mxGeometry x="1400" y="-420" width="240" height="30" as="geometry"/>
                </mxCell>
                <mxCell id="143" value="&lt;font style=&quot;font-size: 20px;&quot;&gt;Search&lt;/font&gt;" style="strokeWidth=0;shadow=0;dashed=0;align=center;html=1;shape=mxgraph.mockup.forms.searchBox;strokeColor=#999999;mainText=;strokeColor2=#008cff;fontColor=#666666;fontSize=17;align=left;spacingLeft=3;rounded=0;movable=0;resizable=0;rotatable=0;deletable=0;editable=0;connectable=0;" parent="1" vertex="1">
                    <mxGeometry x="1040" y="-485" width="600" height="50" as="geometry"/>
                </mxCell>
                <mxCell id="147" value="Course1&lt;br&gt;&lt;font style=&quot;font-size: 20px;&quot;&gt;excerpt&lt;/font&gt;&lt;br&gt;&lt;br&gt;&lt;br&gt;Course 2&lt;br&gt;&lt;font style=&quot;font-size: 20px;&quot;&gt;excerpt&lt;/font&gt;&lt;br&gt;&lt;br&gt;&lt;br&gt;&lt;br&gt;Course 3&lt;br&gt;&lt;font style=&quot;font-size: 20px;&quot;&gt;excerpt&lt;/font&gt;&lt;br&gt;&lt;div&gt;&lt;/div&gt;" style="text;strokeColor=none;fillColor=none;html=1;whiteSpace=wrap;verticalAlign=middle;overflow=hidden;strokeWidth=0;fontSize=30;align=center;movable=0;resizable=0;rotatable=0;deletable=0;editable=0;connectable=0;" parent="1" vertex="1">
                    <mxGeometry x="1355" y="-285" width="265" height="670" as="geometry"/>
                </mxCell>
                <mxCell id="159" value="&lt;font color=&quot;#99004d&quot; style=&quot;font-size: 20px;&quot;&gt;Sticky Sidebar 300px&lt;/font&gt;" style="text;html=1;strokeColor=none;fillColor=none;align=center;verticalAlign=middle;whiteSpace=wrap;rounded=0;strokeWidth=0;fontSize=25;fontColor=#FFFFFF;movable=0;resizable=0;rotatable=0;deletable=0;editable=0;connectable=0;" parent="1" vertex="1">
                    <mxGeometry x="1340" y="430" width="300" height="55" as="geometry"/>
                </mxCell>
                <mxCell id="160" value="&lt;font style=&quot;font-size: 20px;&quot;&gt;Main content 900px&lt;/font&gt;" style="text;html=1;strokeColor=none;fillColor=none;align=center;verticalAlign=middle;whiteSpace=wrap;rounded=0;fontColor=#99004D;movable=0;resizable=0;rotatable=0;deletable=0;editable=0;connectable=0;strokeWidth=0;" vertex="1" parent="1">
                    <mxGeometry x="440" y="430" width="900" height="55" as="geometry"/>
                </mxCell>
                <mxCell id="169" value="&lt;span style=&quot;color: rgb(0, 0, 0); font-size: 30px;&quot;&gt;Footer with Social Media Links&lt;/span&gt;" style="text;html=1;strokeColor=none;fillColor=none;align=center;verticalAlign=middle;whiteSpace=wrap;rounded=0;strokeWidth=3;fontSize=20;fontColor=#99004D;movable=0;resizable=0;rotatable=0;deletable=0;editable=0;connectable=0;" vertex="1" parent="1">
                    <mxGeometry x="650" y="515" width="480" height="30" as="geometry"/>
                </mxCell>
            </root>
        </mxGraphModel>
    </diagram>
</mxfile>